<svg width="419" height="420" viewBox="0 0 419 420" fill="none" xmlns="http://www.w3.org/2000/svg">
<path fill-rule="evenodd" clip-rule="evenodd" d="M209.5 419.667C325.207 419.667 419 325.873 419 210.167C419 94.4598 325.207 0.666626 209.5 0.666626C93.7932 0.666626 0 94.4598 0 210.167C0 325.873 93.7932 419.667 209.5 419.667ZM178.075 314.728C178.075 296.564 191.881 283.492 209.311 283.492C227.119 283.492 240.925 296.564 240.925 314.728C240.925 332.892 227.119 346.342 209.311 346.342C191.881 346.342 178.075 332.892 178.075 314.728ZM192.153 84.4666C190.74 84.4681 189.341 84.7556 188.042 85.3119C186.742 85.8681 185.569 86.6816 184.592 87.7034C183.616 88.7251 182.856 89.934 182.359 91.2571C181.861 92.5803 181.637 93.9904 181.699 95.4025L188.11 242.053C188.229 244.75 189.385 247.297 191.336 249.163C193.288 251.029 195.885 252.069 198.585 252.067H220.436C223.136 252.069 225.733 251.029 227.685 249.163C229.636 247.297 230.792 244.75 230.911 242.053L237.301 95.4025C237.363 93.9886 237.138 92.5768 236.64 91.2522C236.141 89.9277 235.379 88.7178 234.4 87.6958C233.421 86.6738 232.246 85.8607 230.944 85.3057C229.642 84.7507 228.241 84.4653 226.826 84.4666H192.153Z" fill="#D30000"/>
</svg>
