<svg width="75" height="75" viewBox="0 0 75 75" fill="none" xmlns="http://www.w3.org/2000/svg">
<circle cx="37.5" cy="37.5" r="37.5" transform="rotate(-180 37.5 37.5)" fill="#E39A36"/>
<path d="M37.8093 44.6797C39.0575 44.6797 40.2546 44.2997 41.1372 43.6234C42.0198 42.9471 42.5156 42.0299 42.5156 41.0734L42.5156 19.4359C42.5156 18.4795 42.0198 17.5622 41.1372 16.8859C40.2546 16.2096 39.0575 15.8297 37.8093 15.8297C36.5612 15.8297 35.3641 16.2096 34.4815 16.8859C33.5989 17.5622 33.1031 18.4795 33.1031 19.4359L33.1031 41.0734C33.1031 42.0299 33.5989 42.9471 34.4815 43.6234C35.3641 44.2997 36.5612 44.6797 37.8093 44.6797Z" fill="white"/>
<path d="M37.8093 49.7593C35.2101 49.7593 33.1031 51.8664 33.1031 54.4656C33.1031 57.0648 35.2101 59.1719 37.8093 59.1719C40.4086 59.1719 42.5156 57.0648 42.5156 54.4656C42.5156 51.8664 40.4086 49.7593 37.8093 49.7593Z" fill="white"/>
</svg>
